<?xml version="1.0" encoding="UTF-8" standalone="no"?>
<svg width="512" height="512" viewBox="0 0 512 512" xmlns="http://www.w3.org/2000/svg">
    <!-- Hintergrund -->
    <rect width="512" height="512" rx="64" fill="#2C3E50"/>
    
    <!-- VR-Headset -->
    <path d="M256 128c-70.7 0-128 57.3-128 128s57.3 128 128 128 128-57.3 128-128-57.3-128-128-128zm0 224c-53 0-96-43-96-96s43-96 96-96 96 43 96 96-43 96-96 96z" fill="#3498DB"/>
    
    <!-- Musiknoten -->
    <path d="M192 320c0 17.7-14.3 32-32 32s-32-14.3-32-32 14.3-32 32-32 32 14.3 32 32zm128-64c0 17.7-14.3 32-32 32s-32-14.3-32-32 14.3-32 32-32 32 14.3 32 32z" fill="#E74C3C"/>
    
    <!-- Wellen -->
    <path d="M256 192v128M224 224v64M288 224v64" stroke="#ECF0F1" stroke-width="8" stroke-linecap="round"/>
</svg> 